{
    "asset" : {
        "generator" : "Khronos glTF Blender I/O v1.8.19",
        "version" : "2.0"
    },
    "scene" : 0,
    "scenes" : [
        {
            "name" : "Scene",
            "nodes" : [
                0
            ]
        }
    ],
    "nodes" : [
        {
            "mesh" : 0,
            "name" : "Plane001",
            "scale" : [
                0.009999999776482582,
                0.009999999776482582,
                0.009999999776482582
            ]
        }
    ],
    "materials" : [
        {
            "doubleSided" : true,
            "name" : "Material #25",
            "pbrMetallicRoughness" : {
                "baseColorTexture" : {
                    "index" : 0
                },
                "metallicFactor" : 0,
                "metallicRoughnessTexture" : {
                    "index" : 1
                }
            }
        }
    ],
    "meshes" : [
        {
            "name" : "Mesh",
            "primitives" : [
                {
                    "attributes" : {
                        "POSITION" : 0,
                        "NORMAL" : 1,
                        "TEXCOORD_0" : 2
                    },
                    "indices" : 3,
                    "material" : 0
                }
            ]
        }
    ],
    "textures" : [
        {
            "sampler" : 0,
            "source" : 0
        },
        {
            "sampler" : 0,
            "source" : 1
        }
    ],
    "images" : [
        {
            "bufferView" : 4,
            "mimeType" : "image/png",
            "name" : "Diffuse_Flag"
        },
        {
            "bufferView" : 5,
            "mimeType" : "image/png",
            "name" : "rough_Flag"
        }
    ],
    "accessors" : [
        {
            "bufferView" : 0,
            "componentType" : 5126,
            "count" : 3603,
            "max" : [
                680.2449951171875,
                1205.9599609375,
                92.5622787475586
            ],
            "min" : [
                -93.07205200195312,
                -6.103515625e-05,
                -92.56233215332031
            ],
            "type" : "VEC3"
        },
        {
            "bufferView" : 1,
            "componentType" : 5126,
            "count" : 3603,
            "type" : "VEC3"
        },
        {
            "bufferView" : 2,
            "componentType" : 5126,
            "count" : 3603,
            "type" : "VEC2"
        },
        {
            "bufferView" : 3,
            "componentType" : 5123,
            "count" : 16548,
            "type" : "SCALAR"
        }
    ],
    "bufferViews" : [
        {
            "buffer" : 0,
            "byteLength" : 43236,
            "byteOffset" : 0
        },
        {
            "buffer" : 0,
            "byteLength" : 43236,
            "byteOffset" : 43236
        },
        {
            "buffer" : 0,
            "byteLength" : 28824,
            "byteOffset" : 86472
        },
        {
            "buffer" : 0,
            "byteLength" : 33096,
            "byteOffset" : 115296
        },
        {
            "buffer" : 0,
            "byteLength" : 43649,
            "byteOffset" : 148392
        },
        {
            "buffer" : 0,
            "byteLength" : 31912,
            "byteOffset" : 192044
        }
    ],
    "samplers" : [
        {
            "magFilter" : 9729,
            "minFilter" : 9987
        }
    ],
    "buffers" : [
        {
            "byteLength" : 223956,
            "uri" : "data:application/octet-stream;base64,"
        }
    ]
}
