<svg width="30" height="30" viewBox="0 0 30 30" fill="none" xmlns="http://www.w3.org/2000/svg">
<path d="M12.812 26.2475C12.5667 26.893 11.9448 27.3175 11.2616 27.3175C10.771 27.3175 10.298 27.0964 9.98267 26.7162C9.75492 26.4243 9.62353 26.0706 9.59725 25.6992H9.27315C6.74165 25.6992 4.70068 26.389 4.70068 27.2379C4.70068 28.0868 6.74165 28.7766 9.27315 28.7766C11.8046 28.7766 13.8456 28.0868 13.8456 27.2379C13.8719 26.8488 13.469 26.5216 12.812 26.2475ZM8.05558 27.0434C7.34606 27.0434 6.80297 26.9372 6.80297 26.7958C6.80297 26.6543 7.37233 26.5481 8.05558 26.5481C8.73882 26.5481 9.30818 26.6543 9.30818 26.7958C9.30818 26.9372 8.73882 27.0434 8.05558 27.0434Z" fill="#5FAB45"/>
<path d="M4.86719 5.37797L7.72279 27.0434C7.95053 27.0699 8.17828 27.0699 8.40603 27.0434L7.34613 5.05078L4.86719 5.37797V5.37797Z" fill="#493C3C"/>
<path d="M4 3.91894C4 2.86662 4.83215 2 5.88329 2C5.88329 2 5.90081 2 5.90957 2C6.95195 2 7.81039 2.84009 7.81039 3.90125C7.81039 3.90125 7.81039 3.91894 7.81039 3.92778C7.81039 4.9801 6.97823 5.84672 5.92709 5.84672C5.92709 5.84672 5.90957 5.84672 5.90081 5.84672C4.85843 5.84672 4 4.99779 4 3.94547C4 3.94547 4 3.92778 4 3.91894V3.91894Z" fill="#8A8081"/>
<path d="M6.50485 6.17399C7.04794 4.9625 9.16774 2.13273 14.6687 5.40465C16.9287 6.74879 17.7959 8.18136 20.9756 8.48202C22.2194 8.58814 23.472 8.32285 24.567 7.71268C25.11 7.56235 25.6882 7.80111 25.9772 8.28748C26.0561 8.58814 25.951 9.13641 25.2677 9.85269C24.8035 10.2418 19.6354 16.6618 13.9504 14.5749C10.9021 13.6729 9.62324 14.5218 8.8086 15.8129C8.4845 16.3612 7.94141 16.1401 7.69615 16.087C7.45088 16.034 6.98663 15.7864 6.96035 15.3442C6.93407 14.9286 6.49609 6.16515 6.49609 6.16515L6.50485 6.17399Z" fill="#ED1C24"/>
<path d="M10.0352 25.6462C10.0352 24.9653 10.587 24.4082 11.2615 24.4082C11.936 24.4082 12.4878 24.9653 12.4878 25.6462C12.4878 26.3271 11.936 26.8842 11.2615 26.8842C10.587 26.8842 10.0352 26.336 10.0352 25.6639C10.0352 25.6639 10.0352 25.6551 10.0352 25.6462V25.6462Z" fill="white"/>
</svg>
