<svg width="30" height="30" viewBox="0 0 30 30" fill="none" xmlns="http://www.w3.org/2000/svg">
<path d="M13.8115 26.2475C13.5662 26.893 12.9443 27.3175 12.2611 27.3175C11.7705 27.3175 11.2975 27.0964 10.9822 26.7162C10.7544 26.4243 10.623 26.0706 10.5968 25.6992H10.2727C7.74117 25.6992 5.7002 26.389 5.7002 27.2379C5.7002 28.0868 7.74117 28.7766 10.2727 28.7766C12.8041 28.7766 14.8451 28.0868 14.8451 27.2379C14.8714 26.8488 14.4685 26.5216 13.8115 26.2475ZM9.0551 27.0434C8.34558 27.0434 7.80249 26.9372 7.80249 26.7958C7.80249 26.6543 8.37185 26.5481 9.0551 26.5481C9.73834 26.5481 10.3077 26.6543 10.3077 26.7958C10.3077 26.9372 9.73834 27.0434 9.0551 27.0434Z" fill="#5FAB45"/>
<path d="M5.86719 5.37797L8.72279 27.0434C8.95053 27.0699 9.17828 27.0699 9.40603 27.0434L8.34613 5.05078L5.86719 5.37797Z" fill="#493C3C"/>
<path d="M5 3.91894C5 2.86662 5.83215 2 6.88329 2C6.88329 2 6.90081 2 6.90957 2C7.95195 2 8.81039 2.84009 8.81039 3.90125C8.81039 3.90125 8.81039 3.91894 8.81039 3.92778C8.81039 4.9801 7.97823 5.84672 6.92709 5.84672C6.92709 5.84672 6.90957 5.84672 6.90081 5.84672C5.85843 5.84672 5 4.99779 5 3.94547C5 3.94547 5 3.92778 5 3.91894Z" fill="#8A8081"/>
<path d="M7.50485 6.17399C8.04794 4.9625 10.1677 2.13273 15.6687 5.40465C17.9287 6.74879 18.7959 8.18136 21.9756 8.48202C23.2194 8.58814 24.472 8.32285 25.567 7.71268C26.11 7.56235 26.6882 7.80111 26.9772 8.28748C27.0561 8.58814 26.951 9.13641 26.2677 9.85269C25.8035 10.2418 20.6354 16.6618 14.9504 14.5749C11.9021 13.6729 10.6232 14.5218 9.8086 15.8129C9.4845 16.3612 8.94141 16.1401 8.69615 16.087C8.45088 16.034 7.98663 15.7864 7.96035 15.3442C7.93407 14.9286 7.49609 6.16515 7.49609 6.16515L7.50485 6.17399Z" fill="#ED1C24"/>
<path d="M11.0352 25.6462C11.0352 24.9653 11.587 24.4082 12.2615 24.4082C12.936 24.4082 13.4878 24.9653 13.4878 25.6462C13.4878 26.3271 12.936 26.8842 12.2615 26.8842C11.587 26.8842 11.0352 26.336 11.0352 25.6639C11.0352 25.6639 11.0352 25.6551 11.0352 25.6462Z" fill="white"/>
</svg>
