<svg fill="#000000" height="800px" width="800px" version="1.1" xmlns="http://www.w3.org/2000/svg" xmlns:xlink="http://www.w3.org/1999/xlink" 
	 viewBox="0 0 360 360" xml:space="preserve">
			<!-- <path fill="#fff" stroke-width="" stroke="" d="M180,0C80.748,0,0,80.748,0,180s80.748,180,180,180s180-80.748,180-180S279.252,0,180,0z M180,340
				c-88.224,0-160-71.776-160-160S91.776,20,180,20s160,71.776,160,160S268.224,340,180,340z"/> -->
			<path fill="#fff" stroke-width="" stroke="" d="M94.315,265.685l128.962-42.407l42.407-128.962l-128.962,42.407L94.315,265.685z M234.315,125.685l-26.882,81.749
				l-81.749,26.882l26.882-81.749L234.315,125.685z"/>
</svg>